<svg xmlns="http://www.w3.org/2000/svg" viewBox="0 0 657.48 103.13" width="657.48" height="103.13" fill="#F7EBE8"><path d="M11.13 102.84L11.13 102.84Q6.66 102.84 3.75 100.67Q0.83 98.51 0.16 94.78Q-0.51 91.04 1.58 86.57L1.58 86.57L34.12 11.04Q36.51 5.37 40.16 2.76Q43.82 0.15 48.75 0.15L48.75 0.15Q53.67 0.15 57.25 2.76Q60.83 5.37 63.22 11.04L63.22 11.04L95.61 86.57Q98.6 93.58 95.98 98.21Q93.37 102.84 86.66 102.84L86.66 102.84Q80.98 102.84 77.78 99.78Q74.57 96.72 72.33 90.9L72.33 90.9L66.36 76.42L76.66 83.73L21.88 83.73L30.83 76.42L24.72 90.9Q22.33 96.87 19.49 99.85Q16.66 102.84 11.13 102.84M48.6 29.1L48.6 29.1L32.92 70L28.6 62.99L68.45 62.99L64.12 70L48.6 29.1"/><path d="M128.16 102.84L128.16 102.84Q122.19 102.84 119.06 99.63Q115.92 96.42 115.92 90.3L115.92 90.3L115.92 13.28Q115.92 6.87 119.58 3.51Q123.24 0.15 128.61 0.15L128.61 0.15Q132.04 0 134.88 0.9Q137.72 1.79 140.48 4.03Q143.24 6.27 146.37 10.6L146.37 10.6L185.92 63.28L182.04 63.28L182.04 12.69Q182.04 6.57 185.18 3.36Q188.31 0.15 194.43 0.15L194.43 0.15Q200.4 0.15 203.54 3.36Q206.67 6.57 206.67 12.69L206.67 12.69L206.67 90.9Q206.67 96.27 203.69 99.55Q200.7 102.84 195.03 102.84L195.03 102.84Q191.75 102.84 189.13 101.49Q186.52 100.15 184.43 97.99Q182.34 95.82 180.4 93.43L180.4 93.43L136.52 35.82L140.55 35.82L140.55 90.3Q140.55 96.42 137.49 99.63Q134.43 102.84 128.16 102.84"/><path d="M279.82 101.49L243.1 101.49Q236.39 101.49 232.88 97.99Q229.37 94.48 229.37 87.76L229.37 87.76L229.37 15.22Q229.37 8.51 232.88 5Q236.39 1.49 243.1 1.49L243.1 1.49L278.33 1.49Q289.67 1.49 297.43 4.63Q305.19 7.76 309.15 13.28Q313.1 18.81 313.1 25.97L313.1 25.97Q313.1 31.79 310.79 36.79Q308.48 41.79 304.22 45.3Q299.97 48.81 293.85 50.3L293.85 50.3L293.85 47.91Q304.6 49.85 310.27 55.67Q315.94 61.49 315.94 71.64L315.94 71.64Q315.94 85.52 306.46 93.51Q296.98 101.49 279.82 101.49L279.82 101.49M254.6 58.81L254.6 81.64L276.24 81.64Q284 81.64 287.58 78.81Q291.16 75.97 291.16 70L291.16 70Q291.16 63.88 287.58 61.34Q284 58.81 276.24 58.81L276.24 58.81L254.6 58.81M254.6 19.7L254.6 40.15L273.55 40.15Q278.63 40.15 281.83 38.88Q285.04 37.61 286.61 35.3Q288.18 32.99 288.18 29.55L288.18 29.55Q288.18 26.42 286.69 24.25Q285.19 22.09 281.98 20.9Q278.78 19.7 273.55 19.7L273.55 19.7L254.6 19.7"/><path d="M342.22 102.84L342.22 102.84Q337.75 102.84 334.83 100.67Q331.92 98.51 331.25 94.78Q330.58 91.04 332.67 86.57L332.67 86.57L365.21 11.04Q367.6 5.37 371.25 2.76Q374.91 0.15 379.83 0.15L379.83 0.15Q384.76 0.15 388.34 2.76Q391.92 5.37 394.31 11.04L394.31 11.04L426.7 86.57Q429.69 93.58 427.07 98.21Q424.46 102.84 417.75 102.84L417.75 102.84Q412.07 102.84 408.86 99.78Q405.66 96.72 403.42 90.9L403.42 90.9L397.45 76.42L407.75 83.73L352.97 83.73L361.92 76.42L355.81 90.9Q353.42 96.87 350.58 99.85Q347.75 102.84 342.22 102.84M379.69 29.1L379.69 29.1L364.01 70L359.69 62.99L399.54 62.99L395.21 70L379.69 29.1"/><path d="M460.3 102.84L460.3 102.84Q453.88 102.84 450.45 99.33Q447.01 95.82 447.01 89.4L447.01 89.4L447.01 14.93Q447.01 8.36 450.52 4.93Q454.03 1.49 460.45 1.49L460.45 1.49L497.01 1.49Q514.92 1.49 524.18 9.18Q533.43 16.87 533.43 31.49L533.43 31.49Q533.43 41.34 529.1 48.06Q524.78 54.78 516.42 58.21Q508.06 61.64 496.27 61.64L496.27 61.64L497.31 58.96L504.33 58.96Q507.61 58.96 509.78 58.96Q511.94 58.96 513.66 59.85Q515.37 60.75 517.31 63.36Q519.25 65.97 522.24 71.34L522.24 71.34L530 85.67Q532.39 89.85 532.16 93.81Q531.94 97.76 529.1 100.3Q526.27 102.84 520.45 102.84L520.45 102.84Q514.92 102.84 511.42 100.52Q507.91 98.21 505.07 93.28L505.07 93.28L491.34 68.06Q490.15 65.67 489.25 64.4Q488.36 63.13 486.86 62.54Q485.37 61.94 482.09 61.94L482.09 61.94L473.43 61.94L473.43 89.4Q473.43 95.82 470.07 99.33Q466.72 102.84 460.3 102.84M473.43 20.3L473.43 44.48L492.24 44.48Q500.45 44.48 504.33 41.79Q508.21 39.1 508.21 32.39L508.21 32.39Q508.21 25.82 504.33 23.06Q500.45 20.3 492.24 20.3L492.24 20.3L473.43 20.3"/><path d="M604.04 103.13L604.04 103.13Q592.85 103.13 583.15 99.4Q573.45 95.67 566.13 88.81Q558.82 81.94 554.72 72.46Q550.61 62.99 550.61 51.64L550.61 51.64Q550.61 40.45 554.72 31.04Q558.82 21.64 566.13 14.7Q573.45 7.76 583.15 3.88Q592.85 0 604.04 0L604.04 0Q615.24 0 624.94 3.81Q634.64 7.61 642.03 14.63Q649.42 21.64 653.45 31.04Q657.48 40.45 657.48 51.49L657.48 51.49Q657.48 62.99 653.45 72.46Q649.42 81.94 642.03 88.81Q634.64 95.67 624.94 99.4Q615.24 103.13 604.04 103.13M604.04 80.9L604.04 80.9Q611.21 80.9 617.1 77.31Q623 73.73 626.51 67.09Q630.01 60.45 630.01 51.64L630.01 51.64Q630.01 43.13 626.51 36.49Q623 29.85 617.1 26.04Q611.21 22.24 604.04 22.24L604.04 22.24Q597.03 22.24 591.13 26.04Q585.24 29.85 581.66 36.49Q578.07 43.13 578.07 51.64L578.07 51.64Q578.07 60.6 581.66 67.16Q585.24 73.73 591.13 77.31Q597.03 80.9 604.04 80.9"/></svg>